<?xml version="1.0" standalone="no"?>
<!DOCTYPE svg PUBLIC "-//W3C//DTD SVG 20010904//EN"
 "http://www.w3.org/TR/2001/REC-SVG-20010904/DTD/svg10.dtd">
<svg version="1.0" xmlns="http://www.w3.org/2000/svg"
 width="32.000000pt" height="32.000000pt" viewBox="0 0 32.000000 32.000000"
 preserveAspectRatio="xMidYMid meet">

<g transform="translate(0.000000,32.000000) scale(0.100000,-0.100000)"
fill="#000000" stroke="none">
<path d="M92 298 c-6 -6 -12 -19 -12 -28 0 -8 -9 -21 -21 -28 -16 -11 -18 -16
-9 -27 14 -17 31 -10 24 9 -12 30 52 1 98 -45 46 -46 48 -50 46 -101 -1 -35
-3 -42 -5 -21 -6 43 -45 73 -92 72 l-36 -1 44 -9 c57 -11 73 -25 69 -63 l-3
-31 -80 -6 -80 -5 93 -2 c111 -2 132 6 132 53 0 41 -9 67 -21 59 -17 -10 -9
10 13 33 12 13 16 23 10 23 -6 0 -16 -9 -23 -21 -11 -21 -11 -21 -44 11 -29
28 -32 36 -23 54 6 12 16 24 22 28 7 5 6 8 -4 8 -8 0 -20 10 -25 23 -11 25
-54 34 -73 15z m53 -18 c4 -6 -5 -10 -20 -10 -15 0 -24 4 -20 10 3 6 12 10 20
10 8 0 17 -4 20 -10z m-23 -32 c-9 -9 -15 -9 -24 0 -9 9 -7 12 12 12 19 0 21
-3 12 -12z m48 5 c0 -5 -5 -15 -10 -23 -7 -12 -12 -12 -22 -2 -9 9 -8 12 6 12
9 0 14 5 11 10 -3 6 -1 10 4 10 6 0 11 -3 11 -7z m80 -183 c0 -22 -2 -40 -4
-40 -2 0 -6 18 -8 40 -2 22 0 40 4 40 5 0 8 -18 8 -40z"/>
<path d="M251 213 c7 -12 15 -20 18 -17 3 2 -3 12 -13 22 -17 16 -18 16 -5 -5z"/>
<path d="M31 194 c0 -11 3 -14 6 -6 3 7 2 16 -1 19 -3 4 -6 -2 -5 -13z"/>
<path d="M148 153 c7 -3 16 -2 19 1 4 3 -2 6 -13 5 -11 0 -14 -3 -6 -6z"/>
<path d="M269 143 c-13 -17 -13 -17 6 -3 11 8 22 16 24 17 2 2 0 3 -6 3 -6 0
-17 -8 -24 -17z"/>
<path d="M30 117 c0 -5 7 -7 15 -3 10 4 15 -1 15 -15 0 -11 5 -19 11 -17 6 2
10 7 10 11 -1 4 -1 14 -1 22 0 10 -9 14 -25 13 -14 -1 -25 -6 -25 -11z"/>
</g>
</svg>
